<?xml version="1.0" encoding="UTF-8" standalone="no"?>
<!-- Created with Inkscape (http://www.inkscape.org/) -->

<svg
   width="210mm"
   height="297mm"
   viewBox="0 0 210 297"
   version="1.1"
   id="svg5"
   xml:space="preserve"
   inkscape:version="1.2 (dc2aedaf03, 2022-05-15)"
   sodipodi:docname="stamp.svg"
   xmlns:inkscape="http://www.inkscape.org/namespaces/inkscape"
   xmlns:sodipodi="http://sodipodi.sourceforge.net/DTD/sodipodi-0.dtd"
   xmlns="http://www.w3.org/2000/svg"
   xmlns:svg="http://www.w3.org/2000/svg"><sodipodi:namedview
     id="namedview7"
     pagecolor="#ffffff"
     bordercolor="#666666"
     borderopacity="1.0"
     inkscape:showpageshadow="2"
     inkscape:pageopacity="0.0"
     inkscape:pagecheckerboard="0"
     inkscape:deskcolor="#d1d1d1"
     inkscape:document-units="mm"
     showgrid="false"
     inkscape:zoom="1.104894"
     inkscape:cx="204.99704"
     inkscape:cy="582.86133"
     inkscape:window-width="1920"
     inkscape:window-height="1057"
     inkscape:window-x="-8"
     inkscape:window-y="-8"
     inkscape:window-maximized="1"
     inkscape:current-layer="layer1" /><defs
     id="defs2"><inkscape:path-effect
       effect="skeletal"
       id="path-effect1925"
       is_visible="true"
       lpeversion="1"
       pattern="#path466"
       copytype="repeated"
       prop_scale="1"
       scale_y_rel="false"
       spacing="6"
       normal_offset="20"
       tang_offset="0"
       prop_units="false"
       vertical_pattern="false"
       hide_knot="false"
       fuse_tolerance="0.8" /><inkscape:path-effect
       effect="skeletal"
       id="path-effect1741"
       is_visible="true"
       lpeversion="1"
       pattern="#path466"
       copytype="repeated"
       prop_scale="0.05"
       scale_y_rel="false"
       spacing="6.7"
       normal_offset="0"
       tang_offset="0"
       prop_units="false"
       vertical_pattern="false"
       hide_knot="false"
       fuse_tolerance="2" /><inkscape:path-effect
       effect="rough_hatches"
       id="path-effect1718"
       is_visible="true"
       lpeversion="1.2"
       direction="87.034203,108.78791 , 29.293615,0"
       dist_rdm="75;1"
       growth="0"
       do_bend="true"
       bender="87.034203,113.78791 , 5,0"
       bottom_edge_variation="11.717446;1"
       top_edge_variation="11.717446;1"
       bottom_tgt_variation="0;1"
       top_tgt_variation="0;1"
       scale_bf="1"
       scale_bb="1"
       scale_tf="1"
       scale_tb="1"
       top_smth_variation="0;1"
       bottom_smth_variation="0;1"
       fat_output="true"
       stroke_width_top="1"
       stroke_width_bottom="1"
       front_thickness="1"
       back_thickness="0.25" /></defs><g
     inkscape:label="Layer 1"
     inkscape:groupmode="layer"
     id="layer1"><g
       id="g1920"
       transform="matrix(0.34960045,0,0,0.34960045,5.7838502,86.587113)"><path
         id="path466"
         style="fill:#000000;stroke:none;stroke-width:0.264583px;stroke-linecap:butt;stroke-linejoin:miter;stroke-opacity:1"
         class="UnoptimicedTransforms"
         d="M 7.9376107,5.2923351 V 21.166344 H 23.813198 V 5.2923351 H 20.249162 V 17.727002 H 17.463279 V 5.2923351 H 14.164415 V 17.727002 H 11.376953 V 5.2923351 Z M 20.249162,22.489047 V 34.925292 H 17.463279 14.164415 11.376953 V 31.485949 H 7.9376107 v 3.439343 3.439342 H 23.813198 V 22.489047 Z M 7.9376107,39.687337 V 55.562924 H 11.376953 V 43.126679 h 2.787462 v 12.436245 h 3.298864 V 43.126679 h 2.785883 v 12.436245 h 3.564036 V 39.687337 Z m 0,17.19829 V 72.759636 H 11.376953 V 60.324969 h 2.787462 3.298864 2.785883 v 12.434667 h 3.564036 V 56.885627 Z"
         transform="translate(-114.76212,109.98194)" /></g><path
       id="path1922"
       style="fill:#cbd5e0;fill-rule:evenodd;stroke:none;stroke-width:0.264583;fill-opacity:1"
       d="m 231.48849,140.40903 h -15.87401 c 0.0121,5.17002 -0.42257,10.30043 -1.26572,15.35301 l 15.49083,2.59632 c 0.22653,-1.32001 0.43056,-2.64587 0.61163,-3.97714 l -12.21752,-1.59283 c 0.12109,-0.92454 0.22908,-1.85146 0.32377,-2.78057 l 12.27611,1.24186 c 0.13415,-1.23981 0.24836,-2.48397 0.34228,-3.73214 l -12.33834,-0.8191 c 0.0629,-0.93451 0.11228,-1.87096 0.14787,-2.80914 l 12.38487,0.45584 c 0.0619,-1.30812 0.10145,-2.62029 0.11823,-3.93611 z m -17.93368,11.76936 -12.21907,-1.59304 c 0.0928,-0.764 0.17378,-1.52911 0.24273,-2.29513 0.0816,-0.90707 0.14643,-1.81541 0.19399,-2.72468 0.0402,-0.76831 0.0681,-1.53728 0.0835,-2.30671 l 3.42557,0.12608 c 0.024,-0.99101 0.0286,-1.9831 0.0134,-2.97588 h -3.43935 -3.43934 c 0.10907,4.19099 -0.1872,8.38376 -0.85058,12.5401 l 15.49237,2.59657 c 0.18618,-1.11882 0.35194,-2.2414 0.49683,-3.36731 z M 197.09349,140.40903 H 181.2179 c 0.0446,0.69585 0.0722,1.39373 0.0831,2.09325 l 12.38645,0.45589 c -0.006,0.68896 -0.0235,1.37807 -0.0528,2.06713 l -12.33991,-0.81921 c -0.0153,0.67324 -0.0456,1.34771 -0.0907,2.02304 l 12.27767,1.24201 c -0.0567,0.68825 -0.12477,1.3762 -0.20409,2.06365 l -12.21908,-1.59304 c -0.0753,0.73095 -0.16745,1.46258 -0.27602,2.19447 l 15.49237,2.59657 c 0.64955,-4.08741 0.93517,-8.20806 0.81865,-12.32376 z m -17.19829,0 h -15.87401 c 0.0657,0.48377 0.11616,0.97151 0.15193,1.46283 l 12.38487,0.45584 c 0.0144,0.52021 0.0182,1.04184 0.0116,1.5647 -0.008,0.61878 -0.0302,1.23928 -0.0669,1.86114 -0.0309,0.52516 -0.072,1.0513 -0.12306,1.57821 l -12.21753,-1.59283 c -0.0391,0.52559 -0.093,1.05395 -0.16122,1.58464 l 15.49083,2.59632 c 0.46979,-3.19116 0.61703,-6.37418 0.40351,-9.51085 z m 48.61092,24.56418 -15.28633,-3.51788 c -1.14648,4.9883 -2.68702,9.88435 -4.58344,14.64992 l 14.58732,5.79836 c 0.48662,-1.23194 0.95339,-2.47238 1.39986,-3.72089 l -11.56531,-4.15665 c 0.31407,-0.87431 0.61666,-1.75264 0.90757,-2.63477 l 11.66731,3.84909 c 0.38365,-1.16705 0.74962,-2.34072 1.09757,-3.52067 l -11.78095,-3.47774 c 0.2631,-0.89135 0.51425,-1.78626 0.75326,-2.68452 l 11.87092,3.15792 c 0.33077,-1.241 0.64164,-2.48852 0.93222,-3.74217 z m -19.87701,7.46101 -11.56678,-4.15717 c 0.26577,-0.7338 0.52133,-1.47033 0.76649,-2.20939 0.2903,-0.87514 0.566,-1.75383 0.82676,-2.63572 0.22034,-0.74517 0.43001,-1.49264 0.62881,-2.24218 l 3.28342,0.87346 c 0.25521,-0.96152 0.49348,-1.9266 0.71442,-2.89484 l -3.31201,-0.7622 -3.31201,-0.76221 c -0.93543,4.12334 -2.22353,8.19581 -3.82611,12.1792 l 14.58877,5.79894 c 0.42066,-1.05636 0.82355,-2.11913 1.20824,-3.18789 z m -13.24464,-15.08337 -15.28785,-3.51823 c -0.15693,0.7059 -0.32847,1.41136 -0.51423,2.11599 l 11.87244,3.15832 c -0.17963,0.67862 -0.36952,1.35577 -0.56947,2.03124 l -11.78244,-3.47819 c -0.20004,0.67431 -0.41288,1.34756 -0.63817,2.01941 l 11.6688,3.84958 c -0.22334,0.67083 -0.45648,1.33974 -0.69921,2.00652 l -11.56678,-4.15717 c -0.26585,0.72304 -0.5459,1.4441 -0.83971,2.16277 l 14.58876,5.79893 c 1.57998,-3.92323 2.84867,-7.93236 3.76786,-11.98917 z m -16.56158,-3.81136 -15.28633,-3.51788 c -0.11121,0.51853 -0.23509,1.03856 -0.37124,1.5597 l 11.87092,3.15792 c -0.13942,0.5299 -0.28783,1.0596 -0.44502,1.5889 -0.18603,0.62641 -0.38436,1.25225 -0.59464,1.87719 -0.17759,0.52776 -0.3637,1.05488 -0.55813,1.58115 l -11.56531,-4.15665 c -0.20406,0.54328 -0.42024,1.08668 -0.64809,1.62976 l 14.58731,5.79836 c 1.28615,-3.14105 2.30239,-6.3266 3.01053,-9.51845 z m 41.7763,34.51164 -14.26345,-6.60056 c -2.15994,4.66151 -4.66131,9.1781 -7.46589,13.51159 l 13.24859,8.5652 c 0.71414,-1.1113 1.41108,-2.23376 2.09037,-3.36694 l -10.57218,-6.37955 c 0.48159,-0.79864 0.95332,-1.6029 1.41499,-2.4126 l 10.7176,6.11541 c 0.60299,-1.06414 1.19058,-2.13717 1.76242,-3.21875 l -10.88265,-5.79548 c 0.43779,-0.82271 0.86527,-1.6506 1.28222,-2.48347 l 11.01607,5.51909 c 0.56819,-1.14246 1.11896,-2.2939 1.65191,-3.45394 z m -21.01134,3.28659 -10.57352,-6.38036 c 0.41327,-0.67813 0.81796,-1.36062 1.21386,-2.04726 0.4688,-0.81307 0.92528,-1.63196 1.36909,-2.45632 0.37501,-0.69656 0.74098,-1.39704 1.0977,-2.10122 l 3.04697,1.52655 c 0.455,-0.90061 0.89553,-1.80725 1.32121,-2.71952 l -3.09039,-1.43011 -3.09039,-1.43011 c -1.83483,3.9106 -3.96969,7.71768 -6.36638,11.38305 l 13.24991,8.56605 c 0.62258,-0.96133 1.23004,-1.93172 1.82194,-2.91075 z m -9.89397,-17.58834 -14.26487,-6.60122 c -0.32706,0.68453 -0.66627,1.36614 -1.01723,2.04445 l 11.01746,5.51979 c -0.32799,0.64281 -0.66463,1.28252 -1.0097,1.91893 l -10.88403,-5.79621 c -0.35465,0.64522 -0.71982,1.28712 -1.09517,1.92533 l 10.71897,6.11619 c -0.36454,0.62795 -0.73726,1.25237 -1.11795,1.87303 l -10.57353,-6.38036 c -0.42383,0.68256 -0.8592,1.36049 -1.30568,2.03336 l 13.24991,8.56605 c 2.36532,-3.61398 4.47199,-7.36649 6.28182,-11.21934 z m -15.45337,-7.15121 -14.26344,-6.60056 c -0.25664,0.52187 -0.52348,1.04276 -0.80013,1.56229 l 11.01607,5.51909 c -0.26776,0.51411 -0.54289,1.0264 -0.82518,1.53667 -0.33407,0.60388 -0.67817,1.20493 -1.03196,1.80281 -0.29877,0.5049 -0.60444,1.00753 -0.91682,1.50769 l -10.57218,-6.37955 c -0.33644,0.52841 -0.68233,1.05427 -1.03725,1.57717 l 13.24859,8.56519 c 1.95743,-2.94585 3.6976,-5.98885 5.1823,-9.0908 z m 34.12693,42.44487 -12.80535,-9.24803 c -3.02833,4.18962 -6.34543,8.18169 -9.91311,11.93801 l 11.47466,10.89683 c 0.90909,-0.95809 1.80363,-1.92999 2.68318,-2.91527 l -9.23815,-8.26155 c 0.62365,-0.6975 1.23907,-1.40225 1.84604,-2.11404 l 9.42698,8.04082 c 0.79218,-0.93108 1.57123,-1.87333 2.33681,-2.8264 l -9.64343,-7.77229 c 0.58702,-0.7286 1.16535,-1.46401 1.73477,-2.20602 l 9.82029,7.53935 c 0.77419,-1.01248 1.53343,-2.03641 2.27731,-3.07141 z m -21.33665,-0.75389 -9.23933,-8.2626 c 0.53532,-0.59701 1.06368,-1.19999 1.58486,-1.80875 0.61716,-0.72085 1.22427,-1.44979 1.82098,-2.18648 0.50421,-0.62248 1.001,-1.2505 1.49017,-1.88384 l 2.71622,2.08534 c 0.62337,-0.80827 1.23473,-1.62503 1.83371,-2.4499 l -2.77447,-2.00373 -2.77448,-2.00372 c -2.58914,3.55278 -5.42568,6.9494 -8.47141,10.15165 l 11.47581,10.89792 c 0.79192,-0.83372 1.57138,-1.67916 2.33794,-2.53589 z m -6.40934,-19.28427 -12.80663,-9.24895 c -0.46578,0.63172 -0.94122,1.25805 -1.42595,1.87861 l 9.82154,7.5403 c -0.45089,0.58152 -0.9088,1.15833 -1.37352,1.7302 l -9.64466,-7.77327 c -0.47911,0.58599 -0.96647,1.16637 -1.46173,1.74081 l 9.42818,8.04183 c -0.48028,0.55962 -0.96712,1.11408 -1.46031,1.66317 l -9.23932,-8.26259 c -0.54924,0.6095 -1.10736,1.21172 -1.67394,1.80623 l 11.4758,10.89792 c 3.00559,-3.15964 5.80517,-6.51046 8.36054,-10.01426 z m -13.87364,-10.01954 -12.80536,-9.24803 c -0.37064,0.49376 -0.749,0.98408 -1.13471,1.47057 l 9.8203,7.53935 c -0.37063,0.47285 -0.747,0.94226 -1.12891,1.40802 -0.45197,0.55121 -0.9117,1.09732 -1.37884,1.63798 -0.39449,0.45658 -0.79427,0.90927 -1.19913,1.35787 l -9.23815,-8.26154 c -0.43624,0.48095 -0.87928,0.95671 -1.32869,1.42685 l 11.47466,10.89683 c 2.48363,-2.60557 4.80264,-5.36094 6.91883,-8.2279 z m 25.66282,48.36386 -10.91206,-11.4603 c -3.75163,3.57266 -7.73939,6.89512 -11.92508,9.92918 l 9.26553,12.79326 c 1.07147,-0.77231 2.13104,-1.56109 3.17828,-2.36589 l -7.5632,-9.80263 c 0.74024,-0.5709 1.47388,-1.15068 2.20069,-1.73911 l 7.79545,9.62531 c 0.95123,-0.76787 1.8916,-1.54919 2.82078,-2.3436 l -8.06332,-9.4082 c 0.71078,-0.60901 1.41448,-1.22646 2.1109,-1.85213 l 8.28361,9.2187 c 0.94876,-0.85107 1.88503,-1.71606 2.80842,-2.59459 z m -20.85298,-4.66045 -7.56416,-9.80387 c 0.6319,-0.49043 1.25846,-0.98845 1.87948,-1.49387 0.73536,-0.59848 1.46295,-1.20733 2.18242,-1.82619 0.60794,-0.52293 1.21008,-1.05301 1.80621,-1.59004 l 2.29119,2.54983 c 0.7603,-0.68449 1.51106,-1.37995 2.25191,-2.08599 l -2.36426,-2.48304 -2.36427,-2.48305 c -3.19838,3.04988 -6.59152,5.89095 -10.14119,8.48501 l 9.26646,12.79454 c 0.92869,-0.67355 1.84758,-1.36147 2.75621,-2.06333 z m -2.79072,-20.17115 -10.91315,-11.46143 c -0.57306,0.54748 -1.15331,1.0871 -1.74037,1.61847 l 8.28467,9.21987 c -0.54831,0.49476 -1.10202,0.98318 -1.66091,1.46505 l -8.06434,-9.40939 c -0.57343,0.49661 -1.15282,0.98534 -1.73786,1.46585 l 7.79644,9.62653 c -0.57056,0.46583 -1.14606,0.92487 -1.72629,1.37693 l -7.56416,-9.80388 c -0.64207,0.50388 -1.29038,0.99782 -1.94449,1.4814 l 9.26646,12.79454 c 3.50076,-2.56022 6.84816,-5.36427 10.004,-8.37394 z m -11.8224,-12.41636 -10.91206,-11.4603 c -0.45321,0.43423 -0.91167,0.86255 -1.37501,1.28457 l 8.28362,9.21869 c -0.44803,0.40612 -0.90017,0.80717 -1.35622,1.20296 -0.53973,0.46839 -1.08493,0.92941 -1.63527,1.3827 -0.46476,0.3828 -0.93319,0.7601 -1.40507,1.13168 l -7.5632,-9.80263 c -0.50347,0.40093 -1.01109,0.79402 -1.52243,1.17883 l 9.26553,12.79326 c 2.86474,-2.12021 5.61751,-4.44287 8.22011,-6.92976 z m 16.38396,52.26862 -8.58356,-13.23736 c -4.32985,2.8106 -8.84318,5.31837 -13.5018,7.48509 l 6.6212,14.25449 c 1.20127,-0.55396 2.3933,-1.12704 3.57565,-1.71879 l -5.54734,-11.00281 c 0.83139,-0.41884 1.65779,-0.84818 2.47898,-1.2878 l 5.82301,10.8689 c 1.08013,-0.57452 2.15167,-1.16475 3.21429,-1.77036 l -6.14228,-10.7032 c 0.80905,-0.46395 1.61266,-0.93797 2.4106,-1.42182 l 6.40603,10.55713 c 1.09188,-0.65823 2.17376,-1.33285 3.24522,-2.02347 z m -19.56029,-8.43307 -5.54805,-11.00419 c 0.70303,-0.35839 1.40233,-0.726 2.09772,-1.10261 0.82342,-0.44597 1.64135,-0.90457 2.45343,-1.37547 0.68618,-0.3979 1.3682,-0.80457 2.04583,-1.21981 l 1.77186,2.92003 c 0.86579,-0.52929 1.72452,-1.07201 2.57581,-1.62778 l -1.85976,-2.86807 -1.85975,-2.86807 c -3.66255,2.40189 -7.46719,4.54233 -11.37573,6.38311 l 6.62186,14.25591 c 1.0329,-0.4808 2.05863,-0.97863 3.07678,-1.49305 z m 0.96186,-20.24898 -8.58442,-13.23867 c -0.6489,0.4318 -1.30252,0.85328 -1.96049,1.26405 l 6.40684,10.55847 c -0.62026,0.38252 -1.24429,0.75709 -1.87189,1.12348 l -6.14306,-10.70455 c -0.63759,0.37707 -1.27888,0.744 -1.92353,1.10044 l 5.82374,10.87028 c -0.63538,0.34657 -1.27408,0.68474 -1.91589,1.0143 l -5.54805,-11.0042 c -0.70234,0.36568 -1.40825,0.71878 -2.11732,1.05886 l 6.62186,14.2559 c 3.85085,-1.81571 7.60099,-3.9279 11.21221,-6.29836 z m -9.29964,-14.34168 -8.58357,-13.23736 c -0.50435,0.34327 -1.01148,0.67816 -1.521,1.00427 l 6.40602,10.55713 c -0.49994,0.31391 -1.00238,0.62113 -1.50711,0.92146 -0.59733,0.35544 -1.19786,0.70121 -1.80126,1.03699 -0.50957,0.28357 -1.02118,0.56 -1.53463,0.8291 l -5.54734,-11.0028 c -0.53813,0.28834 -1.07776,0.56619 -1.61845,0.8331 l 6.6212,14.25449 c 3.10077,-1.48978 6.14222,-3.23464 9.08614,-5.19638 z m 6.29036,54.15914 -5.81986,-14.57922 c -4.76299,1.90348 -9.65681,3.45147 -14.64328,4.60578 l 3.54166,15.28051 c 1.29851,-0.30304 2.59043,-0.62785 3.87532,-0.974 l -3.19057,-11.86206 c 0.89707,-0.24133 1.79077,-0.49477 2.68089,-0.76012 l 3.50966,11.77158 c 1.17888,-0.35102 2.35145,-0.72003 3.51737,-1.10668 l -3.88034,-11.65728 c 0.88185,-0.29343 1.75988,-0.59853 2.63388,-0.9151 l 4.18752,11.55466 c 1.20359,-0.43395 2.39964,-0.88677 3.58775,-1.35807 z m -17.45861,-12.07175 -3.19098,-11.86356 c 0.74869,-0.20089 1.49528,-0.41262 2.23958,-0.63498 0.88134,-0.2633 1.75945,-0.54151 2.63399,-0.83429 0.73896,-0.24739 1.47537,-0.50519 2.20903,-0.77317 l 1.15824,3.19594 c 0.93986,-0.34265 1.87513,-0.7012 2.80542,-1.07528 l -1.26096,-3.1588 -1.26096,-3.15881 c -3.98161,1.60882 -8.05269,2.90355 -12.17501,3.84598 l 3.54201,15.28203 c 1.10453,-0.25548 2.20456,-0.53065 3.29964,-0.82506 z m 4.84842,-19.51776 -5.82044,-14.58067 c -0.69331,0.2847 -1.38888,0.55661 -2.08632,0.81533 l 4.18805,11.55613 c -0.66673,0.24481 -1.33561,0.48004 -2.00643,0.70548 l -3.88084,-11.65876 c -0.67161,0.2274 -1.34464,0.44239 -2.01877,0.6446 l 3.5101,11.77307 c -0.67474,0.20186 -1.35119,0.39369 -2.02912,0.5753 l -3.19098,-11.86357 c -0.73003,0.19491 -1.46099,0.37459 -2.19244,0.53859 l 3.54201,15.28204 c 4.05586,-0.92613 8.06366,-2.20138 11.98518,-3.78754 z m -6.30538,-15.79549 -5.81986,-14.57922 c -0.52405,0.22088 -1.04842,0.4309 -1.57271,0.62967 l 4.18752,11.55467 c -0.52639,0.19622 -1.05365,0.38414 -1.58158,0.56355 -0.62479,0.21232 -1.2505,0.41271 -1.87681,0.60083 -0.52892,0.15886 -1.05826,0.30898 -1.58781,0.45014 l -3.19058,-11.86206 c -0.54022,0.14318 -1.07928,0.27321 -1.61675,0.38965 l 3.54166,15.28051 c 3.19172,-0.71425 6.37676,-1.73623 9.51692,-3.02774 z m -4.61798,54.03543 -2.62096,-15.48587 c -5.05103,0.85126 -10.18027,1.2944 -15.3495,1.2912 l 0.0269,15.87133 c 1.36318,-0.0195 2.72241,-0.0635 4.07727,-0.13148 l -0.49289,-12.38041 c 0.93729,-0.0384 1.87284,-0.0904 2.80642,-0.15606 l 0.85539,12.33334 c 1.24749,-0.0974 2.49094,-0.215 3.73001,-0.35255 l -1.27749,-12.27045 c 0.92919,-0.0974 1.85617,-0.20814 2.78075,-0.33196 l 1.6281,12.21128 c 1.28386,-0.17825 2.56265,-0.37783 3.83598,-0.59837 z m -14.54792,-15.5765 -0.49296,-12.38198 c 0.7689,-0.0179 1.53732,-0.0483 2.30506,-0.091 0.90911,-0.0505 1.81726,-0.11817 2.72411,-0.20268 0.76627,-0.0714 1.53161,-0.15486 2.29581,-0.25011 l 0.45032,3.37756 c 0.9825,-0.12458 1.96288,-0.26754 2.94075,-0.42848 l -0.56787,-3.35525 -0.56787,-3.35525 c -4.15561,0.67068 -8.34803,0.97461 -12.53905,0.87359 l 0.0269,15.87291 c 1.14359,0.002 2.28533,-0.0175 3.42478,-0.0594 z m 8.86896,-17.97751 -2.62122,-15.48741 c -0.7063,0.10617 -1.41238,0.19707 -2.11786,0.27232 l 1.62831,12.21282 c -0.68773,0.0816 -1.37598,0.15206 -2.06456,0.21107 l -1.27765,-12.27201 c -0.67548,0.0476 -1.35011,0.0805 -2.02356,0.0983 l 0.8555,12.33491 c -0.68865,0.0317 -1.37738,0.0517 -2.06598,0.0599 l -0.49295,-12.38198 c -0.72516,-0.008 -1.44858,-0.0347 -2.16986,-0.0794 l 0.0269,15.87291 c 4.1158,0.10854 8.23617,-0.18468 12.32291,-0.84147 z m -2.83961,-16.77777 -2.62096,-15.48588 c -0.51232,0.067 -1.02249,0.12078 -1.53012,0.16079 l 1.62811,12.21127 c -0.52736,0.0531 -1.05397,0.0962 -1.57963,0.12922 -0.62209,0.0391 -1.24285,0.0639 -1.86192,0.0742 -0.5228,0.009 -1.04441,0.007 -1.56461,-0.005 l -0.49289,-12.38041 c -0.50974,-0.0345 -1.01567,-0.0849 -1.51736,-0.1515 l 0.0269,15.87132 c 3.13759,0.20636 6.32115,0.0523 9.51246,-0.42385 z m -16.27784,51.73027 0.98211,-15.75965 C 99.237239,245.483 94.155226,244.7388 89.165093,243.60016 l -3.494077,15.29212 c 1.299675,0.29919 2.605906,0.57657 3.918261,0.83171 l 2.310916,-12.0767 c 0.913616,0.17512 1.830052,0.33757 2.749102,0.48716 l -1.971533,12.14688 c 1.22333,0.20374 2.451616,0.38814 3.684517,0.55285 l 1.562509,-12.22284 c 0.925475,0.11887 1.853321,0.22462 2.783332,0.31702 l -1.210849,12.28098 c 1.293279,0.13679 2.591259,0.25187 3.893549,0.34485 z m -10.605627,-18.53186 2.311209,-12.07824 c 0.758425,0.14149 1.518396,0.27159 2.279706,0.39009 0.901494,0.14032 1.804867,0.26438 2.709772,0.37184 0.76463,0.0908 1.53035,0.16974 2.29696,0.23661 l -0.33491,3.39684 c 0.98621,0.0888 1.97416,0.15888 2.96346,0.20981 l 0.21279,-3.41457 0.21279,-3.41456 c -4.18712,-0.18409 -8.361962,-0.75944 -12.486308,-1.68785 l -3.494425,15.29364 c 1.105326,0.25199 2.215122,0.48427 3.328956,0.69639 z m 12.733617,-15.61536 0.98221,-15.76122 c -0.70162,-0.0123 -1.4046,-0.0409 -2.10855,-0.0857 l -1.21101,12.28254 c -0.68868,-0.0547 -1.37709,-0.12086 -2.06501,-0.19827 l 1.5627,-12.22439 c -0.67647,-0.0676 -1.35356,-0.14962 -2.03092,-0.24577 l -1.971781,12.14842 c -0.686088,-0.10367 -1.371445,-0.21834 -2.055863,-0.34379 l 2.311209,-12.07824 c -0.732025,-0.12938 -1.464024,-0.2749 -2.195564,-0.43613 l -3.494425,15.29364 c 4.05776,0.91224 8.162824,1.47461 12.277004,1.64889 z m 1.06404,-17.07439 0.98211,-15.75965 c -0.49613,0.0153 -0.99557,0.0162 -1.49793,0.003 l -1.21085,12.28098 c -0.52529,-0.0292 -1.05157,-0.0685 -1.57864,-0.11786 -0.62377,-0.0584 -1.24864,-0.13071 -1.87428,-0.21668 -0.52835,-0.0726 -1.05724,-0.15491 -1.586465,-0.24673 l 2.310915,-12.0767 c -0.5335,-0.0864 -1.06907,-0.18678 -1.60626,-0.30081 l -3.494075,15.29212 c 3.191975,0.70201 6.389865,1.09553 9.555475,1.14236 z m -27.417979,46.86534 4.383763,-15.05574 c -4.915224,-1.43134 -9.724128,-3.24269 -14.388506,-5.39585 l -6.579891,14.27238 c 1.202909,0.55057 2.415027,1.082 3.635922,1.59384 l 4.783684,-11.33344 c 0.856598,0.3613 1.717636,0.71155 2.58291,1.05056 l -4.487717,11.44704 c 1.142514,0.44517 2.292258,0.87328 3.44889,1.28397 l 4.130102,-11.5744 c 0.875509,0.31224 1.755013,0.61298 2.638305,0.90201 l -3.821883,11.67598 c 1.217765,0.39725 2.442702,0.77527 3.674421,1.13365 z m -6.333043,-20.25913 4.784291,-11.33488 c 0.721422,0.30765 1.446011,0.60554 2.17356,0.89344 0.861517,0.34093 1.727185,0.66786 2.596661,0.98046 0.734686,0.26414 1.472092,0.51804 2.21201,0.76151 l -1.057107,3.2295 c 0.948334,0.31165 1.90088,0.60701 2.857251,0.88571 l 0.949808,-3.26206 0.949808,-3.26205 c -4.080722,-1.18982 -8.096513,-2.71827 -12.009167,-4.54713 l -6.580545,14.27379 c 1.034164,0.47778 2.075451,0.9385 3.12343,1.38171 z m 15.83156,-12.36289 4.384199,-15.05724 c -0.703273,-0.20544 -1.405441,-0.42484 -2.106115,-0.65779 l -3.822368,11.67746 c -0.671546,-0.22174 -1.341189,-0.45332 -2.008721,-0.69452 l 4.130626,-11.57587 c -0.669489,-0.24428 -1.337314,-0.50075 -2.003133,-0.76907 l -4.488286,11.4485 c -0.661872,-0.26354 -1.321392,-0.53645 -1.978353,-0.81852 l 4.784291,-11.33488 c -0.715414,-0.31123 -1.428148,-0.63595 -2.13777,-0.97372 l -6.580545,14.27379 c 3.854839,1.80392 7.809633,3.31061 11.826175,4.48186 z m 4.749476,-16.31176 4.383763,-15.05574 c -0.5225,-0.15313 -1.045837,-0.31826 -1.569623,-0.49502 l -3.821883,11.67599 c -0.528172,-0.17619 -1.055717,-0.36093 -1.582426,-0.55403 -0.623343,-0.22852 -1.245517,-0.46873 -1.866179,-0.72029 -0.524148,-0.21244 -1.047218,-0.43297 -1.569003,-0.6614 l 4.783684,-11.33344 C 91.6287,190.87761 91.086796,190.6236 90.54592,190.35862 L 83.966028,204.631 c 3.103115,1.47963 6.264796,2.70341 9.446836,3.63314 z m -36.8275,39.81313 7.35021,-13.91663 c -4.549677,-2.40606 -8.940389,-5.13949 -13.133931,-8.16207 l -9.2305,12.81742 c 1.073572,0.7694 2.159007,1.5223 3.255872,2.25826 l 6.915541,-10.24926 c 0.774119,0.52202 1.5543,1.03461 2.340338,1.53758 l -6.66299,10.40628 c 1.031551,0.65647 2.072606,1.29814 3.122821,1.92467 l 6.356784,-10.58506 c 0.80007,0.48014 1.605758,0.9504 2.416856,1.41057 l -6.092006,10.73008 c 1.110822,0.62628 2.231287,1.2358 3.361005,1.82816 z m -2.194396,-21.1774 6.916419,-10.25057 c 0.658959,0.44836 1.322707,0.88857 1.991036,1.32042 0.791392,0.51137 1.589208,1.01103 2.393106,1.49863 0.679274,0.41201 1.36289,0.81541 2.050641,1.20999 l -1.685006,2.96787 c 0.879025,0.50304 1.764735,0.99227 2.65674,1.46731 l 1.592534,-3.01525 1.592533,-3.01524 c -3.829238,-2.05049 -7.540898,-4.38694 -11.096777,-6.97117 l -9.231418,12.8187 c 0.930431,0.67099 1.870639,1.32757 2.820192,1.96931 z m 18.120459,-8.97645 7.350941,-13.91801 c -0.673501,-0.36719 -1.343426,-0.74586 -2.009386,-1.13562 l -6.092779,10.73144 c -0.628931,-0.36331 -1.254334,-0.73483 -1.876005,-1.11434 l 6.357592,-10.58641 c -0.632352,-0.39084 -1.260767,-0.79159 -1.884902,-1.20191 l -6.663835,10.4076 c -0.612197,-0.39794 -1.220421,-0.80363 -1.824464,-1.21686 l 6.916419,-10.25057 c -0.666232,-0.46051 -1.32713,-0.93185 -1.982264,-1.41359 l -9.231418,12.8187 c 3.506837,2.55051 7.166272,4.85644 10.940101,6.87957 z m 7.963398,-15.07761 7.350209,-13.91663 c -0.517436,-0.29016 -1.033239,-0.58986 -1.54702,-0.89871 l -6.092006,10.73008 c -0.505583,-0.29773 -1.008916,-0.60239 -1.509791,-0.91378 -0.592768,-0.36851 -1.182094,-0.74644 -1.767635,-1.13345 -0.494489,-0.32683 -0.986278,-0.66013 -1.475162,-0.99969 l 6.915542,-10.24927 c -0.51892,-0.36628 -1.034592,-0.74131 -1.546585,-1.12465 l -9.230501,12.81742 c 2.869175,2.11216 5.849559,4.02112 8.902949,5.68868 z m -44.222786,31.94617 9.881451,-12.34231 c -4.039047,-3.2357 -7.866484,-6.74612 -11.444106,-10.49305 l -11.445906,10.92727 c 0.911665,0.95564 1.837845,1.89744 2.778109,2.82497 l 8.706488,-8.82419 c 0.666182,0.65728 1.340046,1.30676 2.021388,1.94823 l -8.497352,9.02462 c 0.890441,0.8376 1.792659,1.66269 2.70631,2.47491 l 8.242556,-9.2548 c 0.699157,0.62257 1.405554,1.23687 2.118985,1.84271 l -8.021217,9.44325 c 0.972447,0.82389 1.957008,1.63348 2.953294,2.42839 z m 1.810318,-21.28667 8.707593,-8.8253 c 0.571038,0.5636 1.148485,1.12067 1.732134,1.67102 0.69112,0.65167 1.390937,1.29391 2.099108,1.92636 0.598389,0.5344 1.202742,1.06182 1.812853,1.58205 l -2.218614,2.61194 c 0.778287,0.66301 1.565729,1.31468 2.361937,1.95462 l 2.140965,-2.67415 2.140965,-2.67414 c -3.43267,-2.76606 -6.695118,-5.76545 -9.749139,-8.95996 L 35.643115,211.0461 c 0.794128,0.83165 1.600686,1.65153 2.419242,2.45921 z m 19.600313,-5.45603 9.882435,-12.34353 c -0.612298,-0.49751 -1.218549,-1.00402 -1.818365,-1.51915 l -8.022235,9.44446 c -0.560841,-0.4794 -1.116532,-0.96539 -1.666866,-1.45775 l 8.243602,-9.25598 c -0.565067,-0.50725 -1.123924,-1.02214 -1.676228,-1.54433 l -8.498431,9.02577 c -0.537062,-0.50689 -1.068529,-1.0199 -1.594196,-1.53883 l 8.707593,-8.8253 c -0.584479,-0.57722 -1.160972,-1.16262 -1.729046,-1.75576 L 48.04389,199.20723 c 3.013751,3.15203 6.232747,6.11212 9.61878,8.84205 z m 10.705807,-13.37196 9.881452,-12.34231 c -0.480942,-0.39576 -0.957779,-0.7986 -1.430124,-1.20811 l -8.021217,9.44326 c -0.457521,-0.39379 -0.911168,-0.79289 -1.360734,-1.1971 -0.532047,-0.47836 -1.058378,-0.96386 -1.578651,-1.45617 -0.43937,-0.41575 -0.874419,-0.83636 -1.304942,-1.26161 l 8.706488,-8.82419 c -0.462771,-0.45738 -0.919641,-0.92086 -1.370179,-1.38999 l -11.445906,10.92726 c 2.490151,2.59961 5.144158,5.04867 7.923813,7.30896 z M 18.764639,217.94179 30.74213,207.609 c -3.383335,-3.92025 -6.502416,-8.06258 -9.319036,-12.38877 l -13.2261063,8.60191 c 0.7171863,1.10932 1.4515418,2.20745 2.2026343,3.29396 l 10.156524,-7.05819 c 0.532784,0.76708 1.074872,1.52798 1.62606,2.28249 l -9.990804,7.30204 c 0.719184,0.9886 1.452417,1.96696 2.199356,2.93472 l 9.787418,-7.58363 c 0.572769,0.73952 1.154402,1.47239 1.744692,2.19842 l -9.609519,7.81553 c 0.802643,0.99006 1.619869,1.96829 2.45129,2.93431 z m 5.681102,-20.58692 10.157813,-7.05909 c 0.457656,0.65338 0.923343,1.30187 1.396853,1.94523 0.5607,0.76184 1.132371,1.5165 1.714669,2.26366 0.492028,0.63133 0.991644,1.25729 1.498641,1.87768 l -2.657926,2.16172 c 0.646117,0.79155 1.303859,1.57422 1.972838,2.34764 l 2.595104,-2.23875 2.595103,-2.23875 c -2.89102,-3.33655 -5.559172,-6.85378 -7.966254,-10.5135 l -13.227421,8.60276 c 0.625254,0.95972 1.265591,1.91033 1.92058,2.8514 z m 20.27112,-1.80164 11.978681,-10.33382 c -0.519664,-0.59638 -1.03081,-1.19931 -1.53305,-1.80838 l -9.610738,7.81652 c -0.467277,-0.57001 -0.927781,-1.14499 -1.381306,-1.72473 l 9.78866,-7.58459 c -0.467635,-0.59352 -0.926787,-1.1924 -1.377113,-1.7963 l -9.992072,7.30296 c -0.436468,-0.59036 -0.86572,-1.18523 -1.28755,-1.7844 l 10.157813,-7.05909 c -0.470156,-0.66135 -0.929672,-1.32823 -1.378116,-2.00021 l -13.227421,8.60276 c 2.375584,3.60846 5.009056,7.07762 7.862212,10.36928 z m 12.976706,-11.1948 11.97749,-10.33278 c -0.413016,-0.46995 -0.819457,-0.94448 -1.218935,-1.42323 l -9.609518,7.81553 c -0.383984,-0.46438 -0.762472,-0.93245 -1.135256,-1.40399 -0.441177,-0.55806 -0.874365,-1.12099 -1.299223,-1.68846 -0.358792,-0.47922 -0.711642,-0.96167 -1.058344,-1.44714 l 10.156524,-7.0582 c -0.374052,-0.51591 -0.73955,-1.03527 -1.096062,-1.55763 l -13.226107,8.60191 c 1.966046,2.94197 4.148591,5.78604 6.509431,8.49399 z M 4.7229114,198.12645 18.361235,190.23839 c -2.58254,-4.45972 -4.84818,-9.08888 -6.758716,-13.84925 l -14.5711034,5.84134 c 0.4901374,1.23043 1.0000972,2.45233 1.5294471,3.66525 l 11.2656489,-4.95129 c 0.3739274,0.85142 0.7587804,1.69829 1.1543534,2.54038 l -11.1433435,5.23855 c 0.5177784,1.10945 1.05187942,2.21093 1.6019603,3.30409 L 12.43085,186.45591 c 0.420908,0.83099 0.852303,1.65696 1.293978,2.47771 l -10.856909,5.84689 c 0.6014053,1.1248 1.2198656,2.24024 1.8549924,3.34594 z m 9.4179516,-19.07818 11.267079,-4.95192 c 0.318816,0.71772 0.647282,1.43214 0.985194,2.14308 0.400134,0.84184 0.81351,1.67879 1.239788,2.5105 0.360194,0.70278 0.729599,1.40181 1.108009,2.0969 l -3.002946,1.61721 c 0.482515,0.88865 0.979127,1.7709 1.489447,2.64636 l 2.954948,-1.70906 2.954947,-1.70907 c -2.204286,-3.76195 -4.133061,-7.65195 -5.74812,-11.63179 l -14.572552,5.84193 c 0.42381,1.05521 0.865356,2.10398 1.324206,3.14586 z m 20.13288,1.98673 13.63968,-7.88884 c -0.395598,-0.66384 -0.780207,-1.33175 -1.15344,-2.00333 l -10.858287,5.84764 c -0.348239,-0.63517 -0.688083,-1.27367 -1.019325,-1.9153 l 10.992763,-5.57226 c -0.340056,-0.64963 -0.669355,-1.30235 -0.987556,-1.95782 L 33.74282,172.7843 c -0.310414,-0.64839 -0.611992,-1.29966 -0.904526,-1.95361 l 11.267078,-4.95192 c -0.323261,-0.71292 -0.63323,-1.42871 -0.929473,-2.14694 l -14.572552,5.84192 c 1.592334,3.91981 3.495202,7.75296 5.670396,11.46125 z m 14.776094,-8.54612 13.638324,-7.88806 c -0.313659,-0.51268 -0.618272,-1.02749 -0.913451,-1.54404 l -10.856909,5.8469 c -0.284973,-0.5095 -0.562828,-1.02106 -0.833356,-1.53448 -0.32016,-0.60761 -0.630059,-1.21782 -0.929354,-1.83029 -0.252753,-0.51723 -0.497945,-1.03607 -0.735367,-1.55631 l 11.265649,-4.95129 c -0.252762,-0.54187 -0.494317,-1.08454 -0.724232,-1.62756 l -14.571104,5.84135 c 1.296858,3.13926 2.862859,6.23325 4.6598,9.24378 z m -54.3232382,3.45682 14.8639531,-5.00813 c -1.6366626,-4.85411 -2.9037811,-9.825 -3.7631498,-14.87448 l -15.4808955,2.64558 c 0.2305177,1.31897 0.4835111,2.63205 0.7585478,3.93881 l 12.0338632,-2.50347 c 0.1896115,0.91031 0.3917701,1.81767 0.6062691,2.7219 l -11.9549734,2.83415 c 0.286226,1.20015 0.5910477,2.3946 0.9141224,3.583 L 4.558743,166.0645 c 0.2435733,0.89699 0.4992565,1.79059 0.7668426,2.68059 l -11.7633882,3.53734 c 0.3687375,1.22811 0.7570008,2.44933 1.1644014,3.66327 z m 13.02087,-16.76043 12.0353902,-2.50379 c 0.154516,0.75658 0.320304,1.51149 0.497157,2.26454 0.209419,0.89171 0.434355,1.78079 0.674464,2.66691 0.202887,0.74875 0.416608,1.49538 0.640955,2.23969 l -3.253672,0.9784 c 0.287483,0.95432 0.591533,1.90472 0.911762,2.8508 l 3.2205,-1.08509 3.220498,-1.08508 c -1.372471,-4.04229 -2.416786,-8.15997 -3.09474,-12.31484 l -15.4824341,2.64584 c 0.1897941,1.11815 0.3999782,2.2325 0.6301199,3.34262 z m 19.1855942,5.90907 14.865431,-5.00862 c -0.240102,-0.69986 -0.466744,-1.40131 -0.679538,-2.10397 l -11.764881,3.53779 c -0.203728,-0.67484 -0.397438,-1.35138 -0.580923,-2.02944 l 11.855912,-3.21897 c -0.182329,-0.6756 -0.351628,-1.35201 -0.507556,-2.02891 l -11.95649,2.83451 c -0.158902,-0.68095 -0.307346,-1.36317 -0.445125,-2.04644 l 12.03539,-2.50379 c -0.143796,-0.73191 -0.271646,-1.46405 -0.383118,-2.19597 l -15.482435,2.64584 c 0.664002,4.08607 1.691181,8.13813 3.043333,12.11797 z m 16.103971,-5.42593 14.863953,-5.00812 c -0.182871,-0.524 -0.354225,-1.04765 -0.513674,-1.57057 l -11.763388,3.53735 c -0.16049,-0.52914 -0.312237,-1.05873 -0.455035,-1.58854 -0.168996,-0.62702 -0.325458,-1.25436 -0.469043,-1.88169 -0.121256,-0.52977 -0.23333,-1.05954 -0.336012,-1.58908 l 12.033863,-2.50348 c -0.0989,-0.53526 -0.183943,-1.06867 -0.254691,-1.59977 l -15.480896,2.64557 c 0.482587,3.19147 1.286963,6.39031 2.374923,9.55833 z m -53.661588,-7.66912 15.6543783,-1.69299 c -0.3503021,-3.27603 -0.5266319,-6.57849 -0.5188833,-9.89727 -0.00432,-1.85124 0.048631,-3.69739 0.1571056,-5.53672 L -11.0951,133.9163 c -0.09425,1.34992 -0.164749,2.70444 -0.211066,4.06314 l 12.4049633,0.28205 c -0.017123,0.71493 -0.02622,1.43081 -0.027198,2.14754 3.07e-4,0.22487 0.00141,0.44966 0.00332,0.67437 l -12.4256926,0.0888 c 0.02453,1.26071 0.06992,2.51799 0.135843,3.77149 l 12.3765356,-0.52466 c 0.040765,0.93752 0.095262,1.87327 0.1632856,2.80704 l -12.3289572,0.88688 c 0.104639,1.29998 0.231274,2.59555 0.379517,3.88631 z m 16.4740209,-13.62978 12.4065381,0.28208 c -0.0027,0.58564 0.0019,1.17148 0.01388,1.75744 -0.0038,0.18384 -0.0068,0.36768 -0.0091,0.55149 -0.01144,0.91143 -0.0051,1.8225 0.0187,2.73288 0.02011,0.76925 0.05267,1.53801 0.09748,2.30606 l -3.410104,0.24531 c 0.06102,0.98856 0.141077,1.97567 0.239784,2.96093 l 3.391756,-0.36682 3.391756,-0.36681 c -0.253929,-2.68167 -0.350941,-5.37272 -0.28093,-8.06304 -0.03905,-1.50068 -0.02614,-3.00158 0.03699,-4.50096 l -15.764713,-0.9561 c -0.065823,1.1368 -0.1099824,2.27612 -0.1320451,3.41754 z m 17.4450961,9.96149 15.655935,-1.69316 c -0.05317,-0.70444 -0.09042,-1.40801 -0.111342,-2.11032 l -12.330521,0.88699 c -0.03374,-0.68903 -0.05585,-1.37815 -0.0661,-2.06715 l 12.378107,-0.52473 c 0.0055,-0.67142 0.02639,-1.34138 0.06289,-2.00955 l -12.427269,0.0888 c 0.0043,-0.16432 0.0093,-0.32862 0.01502,-0.4929 -0.01816,-0.5236 -0.02928,-1.04743 -0.03347,-1.57141 l 12.406538,0.28209 c -0.02459,-0.72352 -0.03109,-1.44895 -0.01993,-2.17587 l -15.764713,-0.95611 c -0.05964,1.47324 -0.06948,2.94759 -0.02776,4.4213 -0.0748,2.64198 0.01611,5.28601 0.262629,7.92197 z m 16.960337,-1.83423 15.654379,-1.69299 c -0.02065,-0.50387 -0.02732,-1.00493 -0.0196,-1.50279 l -12.328957,0.88688 c -0.01053,-0.52331 -0.0107,-1.04543 -2.92e-4,-1.56617 0.01232,-0.61627 0.03944,-1.2306 0.08171,-1.84264 0.0085,-0.12344 0.01767,-0.24678 0.02743,-0.37003 -0.03111,-0.39283 -0.05593,-0.78662 -0.07456,-1.18131 l 12.404964,0.28205 c -0.04884,-0.50623 -0.08168,-1.01646 -0.09896,-1.53026 L 40.137869,137.0235 c -0.0143,1.13328 0.0159,2.26238 0.09235,3.38553 -0.137062,2.01352 -0.125468,4.04614 0.02468,6.08774 z m -50.674128,-19.35687 15.6142529,1.93318 c 0.6248049,-5.09101 1.6682044,-10.11428 3.091993,-15.03162 l -15.0623738,-4.36079 c -0.3695124,1.27701 -0.717928,2.5613 -1.0448147,3.85242 l 11.9115662,3.00468 c -0.2273351,0.90088 -0.4424375,1.80501 -0.6451008,2.71219 l -11.9933442,-2.67689 c -0.2711684,1.20469 -0.5236027,2.41495 -0.7569603,3.63044 l 12.0830305,2.2816 c -0.1730125,0.91462 -0.3333269,1.83205 -0.4807366,2.75208 l -12.1527703,-1.94155 c -0.2094279,1.27619 -0.3978049,2.55774 -0.5647419,3.84426 z m 19.0723392,-9.45144 11.9130778,3.00506 c -0.188358,0.75103 -0.365759,1.50405 -0.531994,2.25883 -0.196846,0.89377 -0.378037,1.79002 -0.54323,2.68842 -0.139584,0.75912 -0.267746,1.51977 -0.38428,2.28175 l -3.361372,-0.53702 c -0.151405,0.97917 -0.284717,1.96074 -0.399549,2.94433 l 3.383063,0.41885 3.383062,0.41886 c 0.466887,-4.17291 1.31098,-8.31947 2.494074,-12.40148 L 9.5420914,114.40483 c -0.3154817,1.0895 -0.6119526,2.18419 -0.8889802,3.28363 z m 14.7598368,13.64016 15.615806,1.93337 c 0.06694,-0.70513 0.149633,-1.41097 0.247704,-2.11712 l -12.154313,-1.94179 c 0.101809,-0.68661 0.214639,-1.3725 0.338283,-2.05746 l 12.084564,2.28188 c 0.11772,-0.67756 0.249294,-1.35512 0.394378,-2.03235 l -11.994866,-2.67723 c 0.148864,-0.68211 0.308285,-1.36306 0.478057,-2.04264 l 11.913078,3.00506 c 0.181135,-0.73077 0.377702,-1.46081 0.589268,-2.18969 l -15.063871,-4.36123 c -1.164582,4.01777 -1.993346,8.0969 -2.448088,12.1992 z m 16.916864,2.09446 15.614254,1.93318 c 0.03273,-0.50625 0.07927,-1.01515 0.13925,-1.52631 l -12.15277,-1.94154 c 0.07093,-0.52855 0.151611,-1.05766 0.241826,-1.58713 0.106767,-0.62661 0.226891,-1.25371 0.360032,-1.88097 0.112436,-0.52972 0.234155,-1.05955 0.36495,-1.58928 l 11.911567,3.00468 c 0.131276,-0.53909 0.275898,-1.07953 0.433434,-1.6209 l -15.062374,-4.36079 c -0.923887,3.18244 -1.553345,6.38486 -1.850169,9.56906 z m -45.0616537,-30.12811 14.7941137,5.2186 c 1.705859,-4.8318 3.777668,-9.543215 6.177221,-14.096047 L 2.3130959,87.087142 C 1.7008915,88.258697 1.1071306,89.44017 0.53224537,90.631128 L 11.609503,96.017531 c -0.406715,0.837062 -0.802818,1.678998 -1.188104,2.525601 L -0.78105235,93.441101 C -1.285607,94.556931 -1.7737007,95.680598 -2.2449908,96.81176 l 11.3435476,4.75815 c -0.3595798,0.85785 -0.7080846,1.72013 -1.0453075,2.58664 L -3.403478,99.69502 c -0.4614975,1.19228 -0.9044149,2.39239 -1.3283637,3.59995 z m 20.5835497,-5.214634 11.078664,5.387084 c -0.347723,0.70723 -0.686108,1.41807 -1.01495,2.13229 -0.389394,0.84574 -0.765406,1.69624 -1.127694,2.55115 -0.306124,0.72238 -0.60245,1.44791 -0.888769,2.17639 l -3.168852,-1.23402 c -0.365839,0.9329 -0.716056,1.87067 -1.050264,2.81292 l 3.205368,1.13069 3.205366,1.13069 c 1.433879,-4.02776 3.19232,-7.97652 5.237116,-11.80809 L 17.399911,95.028328 c -0.532569,1.009648 -1.048781,2.027128 -1.548203,3.052008 z m 11.47159,16.522034 14.795584,5.21913 c 0.251718,-0.6984 0.516727,-1.39503 0.794637,-2.08951 l -11.458181,-4.4621 c 0.262045,-0.66266 0.533487,-1.32298 0.81412,-1.98076 l 11.344987,4.75875 c 0.286374,-0.66252 0.584328,-1.32277 0.893519,-1.9804 L 33.304091,108.9648 c 0.301925,-0.6511 0.612787,-1.29941 0.932378,-1.94473 l 11.078664,5.38709 c 0.354285,-0.70547 0.721349,-1.40755 1.10076,-2.10581 l -13.927782,-7.33111 c -2.017512,3.7761 -3.751852,7.66621 -5.164813,11.63213 z m 16.028305,5.65397 14.794114,5.2186 c 0.1928,-0.52422 0.396949,-1.04863 0.612058,-1.57282 L 47.301047,119.4406 c 0.211142,-0.52464 0.430405,-1.04821 0.657583,-1.57051 0.268857,-0.61813 0.548799,-1.23448 0.839483,-1.84871 0.245482,-0.51872 0.498626,-1.03593 0.759224,-1.55142 l 11.077258,5.3864 c 0.278823,-0.53939 0.568338,-1.07747 0.868113,-1.61382 l -13.926397,-7.33038 c -1.662755,3.05483 -3.083727,6.18229 -4.224708,9.34418 z M 5.559756,81.256647 l 13.53877,8.06882 c 2.641831,-4.427503 5.596966,-8.681981 8.827201,-12.725229 L 15.570511,66.735477 c -0.822325,1.033519 -1.628861,2.07961 -2.419174,3.137839 l 9.902039,7.427214 c -0.560636,0.747784 -1.112281,1.502063 -1.654729,2.262631 L 11.327999,72.376904 C 10.620205,73.37372 9.9265995,74.380646 9.2475243,75.39734 l 10.2631537,6.893781 c -0.520673,0.775612 -1.031894,1.557276 -1.533457,2.344783 L 7.5574476,77.9953 C 6.8753117,79.072243 6.209285,80.159488 5.559756,81.256647 Z m 21.285757,-1.111753 9.903296,7.428156 c -0.481628,0.637971 -0.955539,1.281161 -1.421528,1.929367 -0.551795,0.767563 -1.092481,1.542157 -1.621716,2.32344 -0.44719,0.660165 -0.886205,1.325106 -1.316837,1.994615 l -2.882037,-1.836745 c -0.548842,0.855197 -1.084534,1.717739 -1.606686,2.587236 l 2.933378,1.748231 2.933378,1.748231 c 2.255789,-3.737526 4.783494,-7.343415 7.54491,-10.779463 L 28.955227,77.42222 c -0.717087,0.897217 -1.420469,1.804919 -2.109714,2.722674 z m 8.049367,18.594866 13.540116,8.06962 c 0.405068,-0.66023 0.820956,-1.31622 1.247276,-1.9676 L 39.261176,98.200337 c 0.396807,-0.613239 0.801388,-1.222518 1.213537,-1.82763 l 10.264456,6.894653 c 0.42488,-0.61733 0.859066,-1.23012 1.302216,-1.83802 L 41.969459,94.242172 c 0.429528,-0.594623 0.866371,-1.184839 1.310321,-1.770442 l 9.903296,7.428156 c 0.494865,-0.647586 0.999856,-1.28913 1.514539,-1.9242 L 42.34117,88.109944 C 39.615811,91.499292 37.120979,95.0553 34.89488,98.73976 Z m 14.668235,8.74196 13.53877,8.06882 c 0.321442,-0.51077 0.651762,-1.01924 0.990571,-1.52503 L 53.672683,107.3849 c 0.325876,-0.49524 0.658251,-0.98779 0.996917,-1.47746 0.4008,-0.5795 0.810412,-1.15495 1.228493,-1.72601 0.353069,-0.48226 0.712178,-0.96139 1.07712,-1.43718 l 9.902039,7.42721 c 0.393797,-0.50711 0.795634,-1.01026 1.205078,-1.50903 L 55.727114,98.797668 c -2.256541,2.782152 -4.323942,5.689562 -6.163999,8.684052 z M 19.85582,61.624682 31.704042,72.108515 c 3.43272,-3.878126 7.1261,-7.530582 11.041935,-10.919164 L 32.397146,49.225415 c -0.999876,0.862913 -1.986616,1.74105 -2.959786,2.63398 l 8.38591,9.127114 c -0.689097,0.633046 -1.370825,1.27421 -2.044977,1.923283 L 27.180359,53.98022 c -0.880885,0.847654 -1.749855,1.707691 -2.606568,2.579769 l 8.841849,8.688507 c -0.656293,0.667895 -1.304756,1.343465 -1.945184,2.026502 l -9.04191,-8.478769 c -0.871343,0.930174 -1.729048,1.873121 -2.572726,2.828453 z m 21.178961,2.857194 8.386974,9.128271 c -0.590073,0.543249 -1.174051,1.09334 -1.751728,1.650066 -0.684048,0.659239 -1.35926,1.327783 -2.025295,2.005288 -0.562783,0.572476 -1.119013,1.15135 -1.668483,1.736416 l -2.50093,-2.345169 c -0.700414,0.746065 -1.390148,1.501944 -2.068814,2.267249 l 2.567096,2.27148 2.567095,2.27148 c 2.932616,-3.302211 6.084503,-6.420141 9.417457,-9.315584 L 43.608294,62.186247 c -0.869033,0.752215 -1.727015,1.517569 -2.573513,2.295629 z m 4.493169,19.858647 11.849399,10.484876 c 0.526988,-0.590635 1.062325,-1.174562 1.605622,-1.751395 l -9.043057,-8.479845 c 0.506095,-0.538346 1.018342,-1.071108 1.536533,-1.598081 l 8.842971,8.689609 c 0.533238,-0.541996 1.07351,-1.077176 1.620472,-1.605196 l -8.599025,-8.930705 c 0.531671,-0.512689 1.069035,-1.019349 1.611886,-1.519776 l 8.386973,9.128272 c 0.602874,-0.557135 1.21322,-1.105575 1.830606,-1.644887 L 54.82047,75.148269 c -3.288125,2.857516 -6.398367,5.934336 -9.29252,9.192254 z M 58.364603,95.698965 70.212825,106.1828 c 0.418654,-0.46588 0.843714,-0.92699 1.274792,-1.38295 l -9.041909,-8.478772 c 0.415137,-0.440374 0.83515,-0.876442 1.259831,-1.307995 0.502596,-0.510728 1.01173,-1.015135 1.527061,-1.512876 0.435195,-0.420342 0.874809,-0.83593 1.318636,-1.246558 l 8.38591,9.127111 c 0.476202,-0.44226 0.95779,-0.87792 1.444332,-1.30653 L 66.032647,88.110291 c -2.705244,2.364378 -5.273994,4.906671 -7.668044,7.588674 z M 37.556607,44.998817 47.279076,57.462459 c 4.078527,-3.183667 8.365068,-6.089019 12.82142,-8.677852 L 52.193255,35.156699 c -1.144856,0.659737 -2.279229,1.337351 -3.402685,2.03241 l 6.528869,10.486103 c -0.792099,0.49285 -1.57845,0.995438 -2.358846,1.507557 L 46.176284,38.850792 c -1.023828,0.668345 -2.038016,1.351346 -3.042219,2.048662 l 7.079634,10.142321 c -0.766439,0.534705 -1.526672,1.078707 -2.280491,1.6318 l -7.323134,-9.976024 c -1.029119,0.751974 -2.047071,1.519193 -3.053467,2.301266 z m 20.263162,6.692207 6.529697,10.487433 c -0.673059,0.423068 -1.341644,0.854599 -2.005549,1.294387 -0.786154,0.520769 -1.565746,1.053115 -2.338432,1.596695 -0.652902,0.459313 -1.300874,0.926647 -1.943709,1.401795 l -2.025528,-2.759299 c -0.820554,0.6055 -1.6329,1.223285 -2.436648,1.852968 l 2.106519,2.700435 2.106519,2.700435 c 3.46436,-2.721813 7.095348,-5.206701 10.854757,-7.416457 L 60.759368,49.920154 c -0.988409,0.574642 -1.968419,1.165076 -2.939599,1.77087 z m 0.802994,20.313383 9.723436,12.464881 c 0.617476,-0.489606 1.24083,-0.970034 1.869674,-1.440896 l -7.324063,-9.97729 c 0.589909,-0.437979 1.184346,-0.868752 1.783106,-1.292112 l 7.080532,10.143609 c 0.611449,-0.436514 1.227658,-0.863936 1.848285,-1.281927 L 66.818564,70.287385 c 0.608354,-0.405296 1.22078,-0.802942 1.837072,-1.192732 l 6.529697,10.487433 c 0.678312,-0.434113 1.361443,-0.856877 2.048961,-1.267861 L 69.326266,64.684963 c -3.705808,2.180601 -7.286377,4.633151 -10.703503,7.319444 z m 10.533561,13.503415 9.72247,12.463641 c 0.484433,-0.389557 0.972802,-0.771879 1.464718,-1.146578 l -7.323134,-9.976023 c 0.478925,-0.360035 0.961101,-0.714139 1.446324,-1.062107 0.574244,-0.411808 1.152753,-0.81502 1.735186,-1.209295 0.491862,-0.332964 0.986523,-0.659553 1.483775,-0.979562 l 6.528869,10.486103 c 0.526036,-0.344847 1.054805,-0.680432 1.585874,-1.006321 L 77.893165,79.449772 c -3.008865,1.801525 -5.93388,3.83361 -8.736841,6.05805 z M 58.062371,31.978796 65.223884,45.987042 c 4.57925,-2.344125 9.313871,-4.357291 14.165657,-6.001292 L 74.359094,25.129076 c -1.257265,0.423988 -2.5067,0.868508 -3.747872,1.333127 l 4.330918,11.50418 c -0.869642,0.327194 -1.735156,0.665747 -2.596337,1.015453 L 67.71603,27.588365 c -1.136625,0.458889 -2.265882,0.934707 -3.387429,1.427112 l 4.976508,11.255225 c -0.85111,0.37604 -1.697638,0.763001 -2.539376,1.160676 L 61.502285,30.299011 c -1.155464,0.542343 -2.302231,1.102401 -3.439914,1.679785 z m 18.53836,10.393288 4.331467,11.505641 c -0.730585,0.277428 -1.458318,0.56494 -2.182992,0.86233 -0.858113,0.35215 -1.711936,0.718151 -2.561128,1.097659 -0.717546,0.320676 -1.431786,0.650995 -2.142512,0.990753 l -1.455833,-3.079136 c -0.909264,0.433504 -1.81279,0.881765 -2.71019,1.344394 l 1.55165,3.035097 1.551649,3.035096 c 3.851023,-1.996333 7.816028,-3.703096 11.856809,-5.082082 L 79.808704,41.223684 c -1.075213,0.364499 -2.144682,0.747443 -3.207973,1.1484 z M 73.579575,62.331157 80.7418,76.340795 c 0.676533,-0.357146 1.356473,-0.702644 2.039432,-1.036104 l -5.264115,-11.13378 c 0.648249,-0.312138 1.299404,-0.615448 1.953258,-0.909721 l 4.977139,11.256653 c 0.659513,-0.300882 1.321512,-0.590401 1.985657,-0.868214 L 81.80281,62.254712 c 0.659578,-0.272442 1.321607,-0.535614 1.985881,-0.78931 l 4.331467,11.505641 c 0.72118,-0.278519 1.444525,-0.543038 2.169603,-0.793122 L 85.258813,57.319769 c -3.978408,1.358605 -7.884222,3.041802 -11.679238,5.011388 z m 7.758959,15.176876 7.161512,14.008246 c 0.518782,-0.281806 1.039029,-0.553906 1.560352,-0.815912 L 84.79695,79.568 c 0.517237,-0.254221 1.036104,-0.500889 1.556394,-0.739798 0.615744,-0.282739 1.233482,-0.55461 1.852869,-0.81527 0.523071,-0.220127 1.047318,-0.432258 1.572536,-0.636188 l 4.330918,11.504181 c 0.543299,-0.214858 1.086677,-0.417801 1.629703,-0.608396 L 90.708923,73.415854 c -3.167403,1.093591 -6.303602,2.470385 -9.370389,4.092179 z M 80.773369,23.164364 84.93872,38.28201 c 4.934892,-1.359501 9.97251,-2.335397 15.07465,-2.889484 L 98.294919,19.742288 c -1.337103,0.155671 -2.66903,0.334525 -3.995347,0.536132 l 1.792056,12.181348 c -0.921725,0.136079 -1.840943,0.285138 -2.757449,0.44697 L 91.199852,20.792685 c -1.219275,0.219284 -2.433454,0.457772 -3.642196,0.715119 l 2.532471,12.027217 c -0.910309,0.191903 -1.817658,0.396349 -2.721839,0.613131 L 84.505437,22.200353 c -1.250378,0.301281 -2.49453,0.622747 -3.732068,0.964011 z m 16.004554,13.960437 1.792283,12.182894 c -0.762653,0.106329 -1.524074,0.224362 -2.284058,0.353895 -0.899923,0.153384 -1.797831,0.322892 -2.69338,0.508181 -0.756718,0.156565 -1.511751,0.324396 -2.264894,0.503289 l -0.791845,-3.304679 c -0.966542,0.230078 -1.929817,0.477383 -2.889437,0.741526 l 0.902486,3.275465 0.902486,3.275465 c 4.092602,-1.125771 8.246542,-1.909326 12.423616,-2.312461 l -1.71862,-15.651793 c -1.129449,0.121785 -2.255805,0.264668 -3.378637,0.428218 z m -6.979281,18.795715 4.165766,15.119148 c 0.704159,-0.193255 1.409254,-0.37239 2.114897,-0.537019 L 93.216091,58.553329 c 0.681116,-0.160823 1.363515,-0.311195 2.046989,-0.450908 l 2.532792,12.028744 c 0.677429,-0.135104 1.355072,-0.256572 2.032586,-0.36406 L 97.693861,57.651514 c 0.685342,-0.11413 1.371514,-0.217369 2.05831,-0.30951 l 1.792279,12.182894 c 0.73148,-0.09036 1.46247,-0.164057 2.19254,-0.220671 l -1.71862,-15.651794 c -4.105928,0.391525 -8.191905,1.160288 -12.219728,2.268083 z m 4.512844,16.378827 4.165351,15.117646 c 0.5217,-0.142624 1.042393,-0.273071 1.561693,-0.390952 l -2.862852,-11.9478 c 0.530076,-0.122934 1.06016,-0.236691 1.590043,-0.341066 0.627098,-0.123524 1.253919,-0.233907 1.880109,-0.330805 0.52882,-0.08183 1.0572,-0.154044 1.58492,-0.216435 l 1.79206,12.181349 c 0.52799,-0.0523 1.0534,-0.09003 1.57582,-0.112759 l -1.71845,-15.650237 c -3.18086,0.240572 -6.383161,0.816994 -9.568694,1.691059 z m 10.778374,-53.144078 0.73398,15.791841 c 1.40946,-0.06295 2.82268,-0.09316 4.23887,-0.08985 3.75383,-0.0088 7.48678,0.217973 11.18421,0.665589 l 1.90792,-15.618586 c -1.33363,-0.170952 -2.67259,-0.318862 -4.01643,-0.443298 l -1.04255,12.306557 c -0.93148,-0.07969 -1.86503,-0.145966 -2.80044,-0.198612 l 0.68294,-12.356515 c -1.25069,-0.08097 -2.50527,-0.141534 -3.76341,-0.181358 l -0.24996,12.408521 c -0.63338,-0.01354 -1.2675,-0.02077 -1.90228,-0.02164 -0.30735,4.2e-4 -0.61455,0.0023 -0.92158,0.0057 l -0.12135,-12.422322 c -1.31386,0.02879 -2.62396,0.08023 -3.92992,0.153944 z m 12.60675,17.325235 -1.04268,12.30812 c -0.76697,-0.05539 -1.53473,-0.09863 -2.30308,-0.129517 -0.90982,-0.03658 -1.82047,-0.05583 -2.73159,-0.05742 -0.51871,-9.06e-4 -1.03759,0.0039 -1.55655,0.01452 -0.25128,-0.0051 -0.50253,-0.0089 -0.75375,-0.01134 l -0.0336,-3.435928 c -0.99239,-0.0048 -1.98398,0.01014 -2.97439,0.04436 l 0.15903,3.42154 0.15903,3.421539 c 1.14749,-0.03017 2.29564,-0.0307 3.44365,-8.29e-4 3.04298,-0.07919 6.0869,0.05531 9.11713,0.388857 l 1.9081,-15.620139 C 119.96059,36.688575 118.83,36.573844 117.69661,36.4805 Z m -11.01639,16.89173 0.73406,15.793411 c 0.70035,0.0021 1.39917,0.02072 2.09607,0.05636 l -0.12136,-12.423899 c 0.22461,0.0052 0.44919,0.0117 0.67372,0.01949 0.46373,-0.01608 0.92765,-0.02665 1.39169,-0.03177 l -0.25,12.410097 c 0.66944,-0.02504 1.34055,-0.03455 2.01299,-0.02889 l 0.68302,-12.358083 c 0.68868,0.02051 1.37738,0.05277 2.0659,0.09657 l -1.04268,12.30812 c 0.72864,0.03354 1.45849,0.08446 2.18912,0.152328 l 1.90811,-15.620138 c -2.97891,-0.32478 -5.96984,-0.452179 -8.95815,-0.367574 -1.12739,-0.03192 -2.25515,-0.03366 -3.38249,-0.006 z m 0.79522,17.109267 0.73398,15.791841 c 0.49319,0.02799 0.9829,0.07063 1.46874,0.128301 l -0.12134,-12.422321 c 0.1688,0.01103 0.33744,0.02322 0.50589,0.03656 0.34791,-0.02755 0.69659,-0.05017 1.04596,-0.06793 0.61368,-0.03118 1.22952,-0.04734 1.84718,-0.04881 0.52161,-0.0012 1.04452,0.008 1.56852,0.02747 l -1.04255,12.306558 c 0.5182,0.0025 1.03969,0.02019 1.56404,0.05279 l 1.90792,-15.618586 c -2.31171,-0.210716 -4.61361,-0.245871 -6.89107,-0.09084 -0.85921,-0.05849 -1.72189,-0.08991 -2.58727,-0.09504 z M 129.843,20.961483 126.98979,36.399297 c 5.03598,0.92772 9.99016,2.259976 14.82435,3.958561 l 5.19648,-14.801584 c -1.25205,-0.437515 -2.51206,-0.854643 -3.77961,-1.25095 l -3.67414,11.722113 c -0.88632,-0.277733 -1.77634,-0.543667 -2.66983,-0.797595 l 3.35794,-11.815487 c -1.18392,-0.336449 -2.374,-0.654771 -3.56991,-0.954624 l -2.97638,11.918903 c -0.90195,-0.225332 -1.80715,-0.4384 -2.71538,-0.638996 l 2.64792,-12.000244 C 132.37438,21.45957 131.1115,21.200137 129.843,20.961483 Z m 8.30681,19.555116 -3.6746,11.723602 c -0.74183,-0.233412 -1.48607,-0.456298 -2.23251,-0.668453 -0.88389,-0.25122 -1.77088,-0.487392 -2.66061,-0.708173 -0.7518,-0.186556 -1.50557,-0.362122 -2.26109,-0.526494 l 0.7324,-3.319184 c -0.96989,-0.21175 -1.94284,-0.406067 -2.91847,-0.582564 l -0.61819,3.344835 -0.61819,3.344834 c 4.14834,0.73934 8.25628,1.841827 12.2856,3.269254 l 5.19699,-14.803055 c -1.07136,-0.376647 -2.14862,-0.734992 -3.23133,-1.074602 z m -14.48901,13.89476 -2.85349,15.439348 c 0.70641,0.119362 1.41287,0.253825 2.11898,0.403001 l 2.64825,-12.001767 c 0.68271,0.147097 1.36426,0.30478 2.04446,0.472844 L 124.64225,70.6452 c 0.67649,0.165714 1.35238,0.344673 2.02733,0.536536 l 3.35836,-11.816986 c 0.67632,0.192234 1.35105,0.394592 2.02397,0.606867 l -3.6746,11.723601 c 0.72721,0.230567 1.45297,0.475856 2.17685,0.735436 l 5.19699,-14.803055 c -3.96742,-1.406573 -8.01027,-2.491388 -12.09035,-3.21624 z m -3.09123,16.725705 -2.85322,15.437813 c 0.51413,0.07855 1.03025,0.170268 1.54796,0.274752 l 2.64792,-12.000245 c 0.53,0.110872 1.06012,0.231055 1.59017,0.360342 0.62729,0.153006 1.25447,0.318764 1.8812,0.49693 0.52928,0.150461 1.05823,0.309771 1.58665,0.477724 l -3.67414,11.722114 c 0.54236,0.173869 1.08537,0.360375 1.62858,0.559087 l 5.19647,-14.801584 c -3.16256,-1.135415 -6.35916,-1.990462 -9.55159,-2.526933 z m 32.69457,-43.199852 -6.02241,14.501444 c 4.73803,1.970027 9.34161,4.291945 13.77254,6.927548 l 8.04984,-13.549377 c -1.13788,-0.671509 -2.28639,-1.325284 -3.44508,-1.960891 l -5.96481,10.796759 c -0.81571,-0.450315 -1.63673,-0.89045 -2.46285,-1.320201 l 5.69203,-10.933547 c -1.08699,-0.561784 -2.18243,-1.107714 -3.28597,-1.637448 l -5.36188,11.088373 c -0.83838,-0.405096 -1.68163,-0.799551 -2.52953,-1.183157 l 5.07686,-11.213154 c -1.16455,-0.5235 -2.3376,-1.029079 -3.51874,-1.516349 z m 4.10577,20.850266 -5.96557,10.798129 c -0.69122,-0.385977 -1.38648,-0.763049 -2.08557,-1.13101 -0.82781,-0.435717 -1.66098,-0.858659 -2.49918,-1.268484 -0.70826,-0.346292 -1.42011,-0.683218 -2.13533,-1.010572 l 1.40423,-3.101481 c -0.91523,-0.41779 -1.83599,-0.820618 -2.76189,-1.208096 l -1.30484,3.141956 -1.30485,3.141955 c 3.96445,1.667586 7.83584,3.645673 11.57598,5.896056 l 8.05063,-13.550725 c -0.98281,-0.585036 -1.97416,-1.154423 -2.97361,-1.707728 z m -17.15481,10.570731 -6.023,14.502886 c 0.69128,0.295749 1.38013,0.604129 2.06618,0.924751 l 5.0775,-11.214577 c 0.65195,0.300529 1.30113,0.610022 1.94734,0.928272 l -5.36256,11.08978 c 0.65341,0.326315 1.30393,0.663603 1.95124,1.011521 l 5.69275,-10.934934 c 0.63851,0.338496 1.27379,0.685495 1.90566,1.04079 l -5.96557,10.798129 c 0.6932,0.395018 1.3823,0.802105 2.06687,1.22083 l 8.05063,-13.550724 c -3.68701,-2.220756 -7.50209,-4.172399 -11.40704,-5.816724 z m -6.52482,15.71122 -6.0224,14.501444 c 0.5237,0.230233 1.04693,0.471155 1.56928,0.722376 l 5.07686,-11.213155 c 0.51927,0.244277 1.03705,0.496242 1.55313,0.755689 0.61076,0.307045 1.21914,0.624568 1.8248,0.952227 0.51147,0.276707 1.021,0.560643 1.52838,0.8516 l -5.96481,10.796758 c 0.53396,0.312717 1.0659,0.635417 1.5954,0.967669 l 8.04984,-13.549377 c -2.99621,-1.835536 -6.07911,-3.443349 -9.21048,-4.785231 z m 41.02821,-35.712451 -8.75639,13.12987 c 4.29498,2.867252 8.40288,6.03375 12.28548,9.461287 l 10.46798,-11.861966 c -0.99114,-0.872932 -1.99556,-1.730782 -3.01283,-2.573118 l -7.91457,9.530493 c -0.71964,-0.597436 -1.4462,-1.186314 -2.17948,-1.766428 l 7.68521,-9.710697 c -0.95993,-0.756971 -1.93058,-1.500362 -2.9116,-2.229829 l -7.40646,9.916932 c -0.74934,-0.559386 -1.50516,-1.109754 -2.26726,-1.650896 l 7.16488,-10.085154 c -1.04082,-0.735744 -2.0926,-1.456038 -3.15496,-2.160494 z m 0.0387,21.336413 -7.91557,9.531703 c -0.61517,-0.513082 -1.23599,-1.018881 -1.86225,-1.51719 -0.74159,-0.590066 -1.49081,-1.169631 -2.24733,-1.738351 -0.63923,-0.480555 -1.28368,-0.953367 -1.93313,-1.41823 l 1.98176,-2.789484 c -0.82913,-0.592399 -1.66626,-1.172307 -2.51101,-1.739335 l -1.8972,2.844784 -1.89721,2.844783 c 3.63547,2.450748 7.12524,5.159353 10.43111,8.087609 l 10.46902,-11.863145 c -0.86168,-0.760855 -1.73455,-1.508713 -2.61819,-2.243144 z m -19.01156,7.112728 -8.75727,13.131176 c 0.64473,0.440705 1.28455,0.891571 1.91909,1.352207 l 7.1658,-10.086433 c 0.59573,0.428487 1.18706,0.864316 1.7738,1.307279 l -7.4074,9.918191 c 0.60016,0.456769 1.19517,0.922238 1.78469,1.396064 l 7.68619,-9.711929 c 0.57523,0.459299 1.14562,0.925479 1.71097,1.398335 l -7.91558,9.531702 c 0.62662,0.526899 1.24649,1.063214 1.85917,1.608514 l 10.46902,-11.863146 c -3.26151,-2.889856 -6.70374,-5.563245 -10.28848,-7.98196 z m -9.48689,14.225223 -8.75639,13.129871 c 0.50185,0.350481 1.00075,0.709179 1.49631,1.075706 l 7.16489,-10.085153 c 0.48308,0.352208 0.96304,0.710481 1.43968,1.074613 0.56409,0.430937 1.12351,0.870079 1.67794,1.317083 0.46822,0.377494 0.93287,0.760595 1.39375,1.149096 l -7.91457,9.530493 c 0.49298,0.418993 0.98129,0.845319 1.46451,1.278539 L 154.6928,88.639624 c -2.68477,-2.390575 -5.50887,-4.606071 -8.4341,-6.608282 z M 193.60632,54.621037 182.55114,65.94413 c 3.70686,3.619394 7.17399,7.485389 10.36318,11.559778 l 12.45093,-9.739351 c -0.81184,-1.041783 -1.63961,-2.071139 -2.48289,-3.087634 l -9.52342,7.923317 c -0.5981,-0.719098 -1.20474,-1.431259 -1.81973,-2.136277 l 9.33748,-8.146936 c -0.80272,-0.922011 -1.61843,-1.832715 -2.44678,-2.731769 l -9.11014,8.404582 c -0.63482,-0.688203 -1.27775,-1.36901 -1.92857,-2.042215 l 8.912,-8.616242 c -0.88566,-0.916557 -1.78475,-1.820135 -2.69688,-2.710346 z m -3.89452,21.013557 -9.52463,7.924323 c -0.51365,-0.614728 -1.03456,-1.223794 -1.56255,-1.826992 -0.62521,-0.714267 -1.26033,-1.420307 -1.90502,-2.117775 -0.54475,-0.589345 -1.09632,-1.172569 -1.65453,-1.749468 l 2.465,-2.383193 c -0.7116,-0.735576 -1.43367,-1.461132 -2.16583,-2.17628 l -2.39527,2.453319 -2.39527,2.453317 c 3.1614,3.088829 6.12446,6.382869 8.85098,9.843915 l 12.45216,-9.740319 c -0.70797,-0.904102 -1.4298,-1.797862 -2.16504,-2.680847 z m -20.05928,3.520749 -11.05627,11.324218 c 0.56673,0.554231 1.12609,1.116151 1.6777,1.685371 l 8.91314,-8.617336 c 0.51403,0.530972 1.02205,1.067663 1.52384,1.609864 l -9.1113,8.405648 c 0.51678,0.557076 1.02613,1.120579 1.52772,1.690165 l 9.33866,-8.147969 c 0.4865,0.554642 0.96654,1.114545 1.43991,1.679501 l -9.52464,7.924322 c 0.52747,0.626209 1.04553,1.259182 1.55376,1.898485 l 12.45217,-9.74032 c -2.69094,-3.413874 -5.61523,-6.663926 -8.73469,-9.711949 z m -11.97744,12.267716 -11.05517,11.323091 c 0.44857,0.4393 0.89171,0.88434 1.32905,1.33475 l 8.912,-8.616247 c 0.42141,0.434666 0.83808,0.873774 1.24981,1.317117 0.48726,0.524681 0.96759,1.055294 1.44065,1.591496 0.3995,0.452822 0.79381,0.909629 1.18272,1.370216 l -9.52342,7.923318 c 0.41944,0.4927 0.83155,0.99007 1.23592,1.4917 l 12.45093,-9.739356 c -2.22826,-2.800531 -4.64849,-5.478628 -7.22249,-7.996085 z m 51.65279,-18.293414 -12.91875,9.081111 c 2.97365,4.226453 5.65492,8.646863 8.00562,13.223023 l 13.99867,-7.181532 c -0.59997,-1.178065 -1.21852,-2.346355 -1.85522,-3.504438 l -10.79136,5.97523 c -0.4511,-0.8153 -0.91238,-1.625285 -1.38361,-2.429748 l 10.64883,-6.242264 c -0.61535,-1.056904 -1.24597,-2.104773 -1.89151,-3.143266 l -10.47291,6.551319 c -0.49483,-0.791545 -0.99938,-1.577318 -1.51346,-2.357111 l 10.31821,-6.80642 c -0.69906,-1.065939 -1.41403,-2.121369 -2.14451,-3.165904 z m -7.69376,19.881699 -10.79274,5.975987 c -0.38666,-0.690914 -0.78222,-1.377788 -1.18647,-2.060414 -0.47869,-0.808323 -0.96956,-1.61069 -1.47227,-2.406759 -0.42478,-0.67266 -0.85801,-1.340823 -1.2995,-2.004282 l 2.85395,-1.882609 c -0.56264,-0.847323 -1.13823,-1.687096 -1.72637,-2.518932 l -2.79904,1.967559 -2.79905,1.967559 c 2.54226,3.581826 4.83354,7.316219 6.83562,11.164977 l 14.00006,-7.18225 c -0.52171,-1.014779 -1.05992,-2.021868 -1.61419,-3.020836 z m -20.29794,-0.205207 -12.92004,9.082013 c 0.45731,0.63633 0.90478,1.27787 1.34202,1.92424 l 10.31952,-6.807284 c 0.40687,0.607984 0.80609,1.220062 1.19747,1.836028 l -10.47424,6.552146 c 0.40324,0.62724 0.79678,1.25863 1.18029,1.89383 l 10.65018,-6.24306 c 0.37231,0.62453 0.73653,1.25269 1.09247,1.88429 l -10.79274,5.97599 c 0.39575,0.69295 0.77944,1.39001 1.15064,2.09074 l 14.00006,-7.18224 c -1.97527,-3.79281 -4.23655,-7.474445 -6.74563,-11.006693 z m -13.99649,9.838693 -12.91876,9.08112 c 0.36386,0.49668 0.71982,0.99664 1.0675,1.49948 l 10.31821,-6.80642 c 0.33427,0.49165 0.66218,0.98612 0.98351,1.4832 0.38029,0.58828 0.75137,1.18022 1.11291,1.77547 0.30532,0.50269 0.60384,1.00774 0.89534,1.51496 l -10.79137,5.97522 c 0.31332,0.53384 0.61667,1.0697 0.90961,1.60715 l 13.99867,-7.18153 c -1.62666,-3.06541 -3.49793,-6.06103 -5.57562,-8.94865 z m 53.94372,-8.361772 -14.34712,6.403922 c 2.09536,4.68843 3.8457,9.51817 5.21282,14.45102 l 15.1112,-4.18851 c -0.35551,-1.28177 -0.73227,-2.55643 -1.12983,-3.82353 l -11.7184,3.68624 c -0.27865,-0.88605 -0.56908,-1.7684 -0.8711,-2.64684 l 11.61928,-3.99669 c -0.39785,-1.16165 -0.81324,-2.31653 -1.24581,-3.46432 l -11.49477,4.35715 c -0.32936,-0.86941 -0.67007,-1.73468 -1.02192,-2.59559 l 11.38351,-4.655684 c -0.48104,-1.183889 -0.98046,-2.359741 -1.49786,-3.527168 z m -11.35907,17.940832 -11.71988,3.6867 c -0.23423,-0.74164 -0.47897,-1.48086 -0.73402,-2.21746 -0.30202,-0.87223 -0.61849,-1.74077 -0.94908,-2.6053 -0.27934,-0.7305 -0.56876,-1.45812 -0.86805,-2.18267 l 3.1486,-1.28773 c -0.38225,-0.92764 -0.77991,-1.8502 -1.19261,-2.76729 l -3.10852,1.3875 -3.10852,1.38751 c 1.77803,3.92974 3.25243,7.9594 4.385,12.05078 l 15.11271,-4.18892 c -0.30287,-1.09289 -0.62489,-2.18074 -0.96563,-3.26312 z m -19.72756,-4.06513 -14.34855,6.40456 c 0.31645,0.68699 0.6206,1.37672 0.91204,2.06881 l 11.38496,-4.65627 c 0.27422,0.65952 0.53917,1.32151 0.79466,1.98577 l -11.49622,4.35769 c 0.25956,0.66725 0.50715,1.33638 0.74242,2.00705 l 11.62076,-3.99719 c 0.23265,0.66895 0.4556,1.33992 0.66864,2.0127 l -11.71988,3.6867 c 0.23145,0.72711 0.4482,1.45569 0.6498,2.18529 l 15.11271,-4.18893 c -1.11453,-4.02666 -2.56771,-7.99479 -4.32134,-11.86618 z m -15.54402,6.93817 -14.34713,6.40392 c 0.24771,0.52264 0.48505,1.04608 0.71165,1.56994 l 11.38351,-4.65569 c 0.22165,0.52316 0.43531,1.04752 0.64078,1.57286 0.24317,0.62173 0.47486,1.24484 0.69474,1.869 0.18568,0.52709 0.36294,1.05494 0.53156,1.58331 l -11.7184,3.68624 c 0.17463,0.54239 0.33664,1.08416 0.48559,1.62487 l 15.11121,-4.18851 c -0.87998,-3.18519 -2.05722,-6.35324 -3.49351,-9.46594 z m 54.22043,2.3846 -15.3403,3.29153 c 1.07199,5.00533 1.74632,10.09932 1.98477,15.24377 l 15.78854,-0.76028 c -0.0785,-1.35291 -0.18089,-2.70136 -0.30675,-4.04491 l -12.30451,1.05633 c -0.0807,-0.93133 -0.17488,-1.86058 -0.28223,-2.78756 l 12.24882,-1.41019 c -0.15019,-1.23624 -0.32019,-2.468 -0.50966,-3.69493 l -12.17572,1.82206 c -0.13841,-0.92181 -0.2898,-1.84109 -0.45396,-2.75764 l 12.10789,-2.16404 c -0.23158,-1.27041 -0.48401,-2.53525 -0.75689,-3.79414 z m -14.89046,15.19097 -12.30607,1.05646 c -0.0563,-0.76691 -0.12479,-1.53302 -0.20519,-2.29813 -0.0952,-0.90599 -0.20713,-1.81057 -0.33545,-2.7134 -0.10842,-0.76287 -0.22855,-1.52448 -0.36017,-2.28465 l 3.34896,-0.59855 c -0.17043,-0.97653 -0.35875,-1.95044 -0.56456,-2.92136 l -3.32371,0.71316 -3.3237,0.71316 c 0.86872,4.13257 1.38117,8.31242 1.49913,12.50135 l 15.79011,-0.76036 c -0.0514,-1.13842 -0.12471,-2.27446 -0.21935,-3.40768 z m -18.34812,-8.05904 -15.34183,3.29186 c 0.14417,0.70622 0.27356,1.41271 0.38778,2.1191 l 12.10943,-2.16432 c 0.1161,0.68558 0.22132,1.37201 0.31544,2.05909 l -12.17725,1.82229 c 0.0857,0.67712 0.15721,1.35384 0.21411,2.02982 l 12.25037,-1.41037 c 0.0675,0.68792 0.12376,1.37623 0.16845,2.06473 l -12.30608,1.05646 c 0.0346,0.72872 0.0518,1.45623 0.0513,2.18212 l 15.7901,-0.76035 c -0.1087,-4.11544 -0.60869,-8.22498 -1.46178,-12.29043 z m -16.62006,3.56613 -15.34029,3.29153 c 0.10013,0.51716 0.18743,1.03265 0.2615,1.54609 l 12.1079,-2.16404 c 0.0836,0.5292 0.15751,1.05796 0.22164,1.5861 0.0759,0.62503 0.13806,1.24917 0.18612,1.87208 0.0406,0.52605 0.0711,1.05122 0.0914,1.5753 l -12.30452,1.05633 c 0.003,0.51839 -0.009,1.0335 -0.0361,1.5449 l 15.78853,-0.76029 c 0.0118,-3.1599 -0.32632,-6.35531 -0.97615,-9.548 z"
       inkscape:path-effect="#path-effect1925"
       inkscape:original-d="M 217.75484,140.40903 A 107.69213,107.69213 0 0 1 110.06271,248.10116 107.69213,107.69213 0 0 1 2.3705826,140.40903 107.69213,107.69213 0 0 1 110.06271,32.716896 107.69213,107.69213 0 0 1 217.75484,140.40903 Z"
       class="UnoptimicedTransforms"
       transform="matrix(0.39706335,0,0,0.39706335,66.377514,84.648104)"
       inkscape:export-filename="stamp.png"
       inkscape:export-xdpi="150"
       inkscape:export-ydpi="150" /></g></svg>
